<svg xmlns="http://www.w3.org/2000/svg" data-name="Layer 1" width="903.807" height="509.145"><path d="M68 508.89l-.952-1.758c12.753-6.898 28.626-15.481 36.916-29.568 8.172-13.886 8.356-32.742.479-49.21-6.704-14.016-19.018-26.573-35.612-36.314-3.273-1.92-6.708-3.742-10.031-5.503-8.032-4.256-16.336-8.658-23.184-14.903-9.432-8.6-16.568-23.034-11.25-35.89a23.856 23.856 0 0120.678-14.468l.113 1.997a21.86 21.86 0 00-18.948 13.248c-4.942 11.947 1.839 25.505 10.754 33.636 6.661 6.073 14.852 10.415 22.774 14.613 3.341 1.77 6.797 3.602 10.107 5.546 16.939 9.943 29.527 22.798 36.403 37.174 8.16 17.06 7.946 36.637-.56 51.089-8.572 14.566-24.716 23.297-37.688 30.312z" fill="#f1f1f1"/><ellipse cx="57.72" cy="323.317" rx="17.5" ry="8.5" fill="#f1f1f1"/><ellipse cx="71.72" cy="379.317" rx="17.5" ry="8.5" fill="#f1f1f1"/><ellipse cx="39.72" cy="388.317" rx="17.5" ry="8.5" fill="#f1f1f1"/><ellipse cx="89.72" cy="435.317" rx="17.5" ry="8.5" fill="#f1f1f1"/><ellipse cx="124.72" cy="435.317" rx="17.5" ry="8.5" fill="#f1f1f1"/><path data-name="Rectangle 62" fill="#e6e6e6" d="M341.011 15.429h562.796v267.056H341.011z"/><path data-name="Rectangle 75" fill="#fff" d="M357.104 38.33h530.61v222.814h-530.61z"/><path data-name="Rectangle 80" fill="#3f87cd" d="M340.771 0h562.796v23.909H340.771z"/><circle data-name="Ellipse 90" cx="358.539" cy="11.059" r="4.431" fill="#fff"/><circle data-name="Ellipse 91" cx="375.359" cy="11.059" r="4.431" fill="#fff"/><circle data-name="Ellipse 92" cx="392.18" cy="11.059" r="4.431" fill="#fff"/><path data-name="Path 142" d="M594.432 91.208a2.147 2.147 0 000 4.294h117.804a2.147 2.147 0 000-4.294z" fill="#e6e6e6"/><path data-name="Path 143" d="M594.432 104.09a2.147 2.147 0 000 4.294h60.142a2.147 2.147 0 000-4.294z" fill="#e6e6e6"/><path data-name="Path 142" d="M591.468 166.444a2.147 2.147 0 000 4.293h220.883a2.147 2.147 0 000-4.293z" fill="#e6e6e6"/><path data-name="Path 143" d="M591.468 179.326a2.147 2.147 0 000 4.294h163.22a2.147 2.147 0 000-4.294z" fill="#e6e6e6"/><path data-name="Path 142" d="M591.468 191.917a2.147 2.147 0 000 4.294h220.883a2.147 2.147 0 000-4.294z" fill="#e6e6e6"/><path data-name="Path 143" d="M591.468 204.8a2.147 2.147 0 000 4.294h163.22a2.147 2.147 0 000-4.294z" fill="#e6e6e6"/><circle cx="475.989" cy="156.462" r="18.694" fill="#a0616a"/><path d="M470.069 141.507s8.724 2.337 13.242 3.271 4.05-1.713 4.05-1.713 5.92.779 5.609.155 2.492-3.894-.78-7.633-2.336-6.543-2.336-6.543h-2.804l-.78-1.09h-4.361s-4.823-4.23-13.391-2.983-18.701 4.54-19.636 9.681a45.177 45.177 0 01-.487 2.29c-2.343 9.892 2.635 19.147 7.798 27.903 1.27 2.152 7.407 6.844 7.25 3.625s-5.525-10.45-1.786-10.917 10.126-9.97 8.412-16.046z" fill="#2f2e41"/><path d="M465.384 216.898a65.38 65.38 0 01-10.7-1.758l.198-3.728 1.637-29.642.014-.228h32.93l5.169 27.293.697 3.683a64.107 64.107 0 01-4.152 1.47c-.016 0-.016.015-.03.015a72.877 72.877 0 01-5.942 1.576 68.558 68.558 0 01-8.062 1.243 62.045 62.045 0 01-6.303.303c-1.82 0-3.653-.076-5.456-.227z" fill="#3f87cd"/><path d="M444.213 211.624a68.695 68.695 0 01-3.986-1.894l-.56-.288a42.73 42.73 0 01-1.152-.622q-.773-.432-1.5-.863c-.47-.273-.955-.561-1.425-.85-.03-.014-.045-.03-.075-.03-1.637-1.045-3.244-2.121-4.79-3.288l-.773-.59-.272-4.365.394-.243 26.445-16.821.363-.228.03-.015 3.728.015v13.882c2.107 3.046 3.531 9.426 4.41 17.776.122 1.197.227 2.425.334 3.698a65.38 65.38 0 01-10.7-1.758 15.07 15.07 0 01-1.12-.273 62.702 62.702 0 01-6.517-2.091c-.652-.243-1.288-.5-1.925-.758l-.06-.03c-.273-.122-.576-.243-.85-.364z" fill="#2f2e41"/><path d="M438.515 208.82q-.773-.432-1.5-.863c-.47-.273-.955-.561-1.425-.85-.03-.014-.045-.03-.075-.03-1.637-1.045-3.244-2.121-4.79-3.288l-.773-.59c-.12-.107-.242-.198-.378-.304a46.233 46.233 0 01-2.819-2.334c-.045-.03-.075-.076-.121-.106a10.422 10.422 0 013.046-1.621l1.076.318 7.668 2.303.045 3.107zM503.088 208.866c-.455.242-.91.485-1.364.712-.106.06-.197.106-.288.152-.606.303-1.197.606-1.803.894-.015.015-.046.015-.046.03-.03.015-.075.03-.106.045a67.37 67.37 0 01-4.152 1.819 64.107 64.107 0 01-4.152 1.47c-.016 0-.016.015-.03.015a72.877 72.877 0 01-5.942 1.576 12.506 12.506 0 01.486-3.682l.015-.213 1.303-21.095-1.743-9.047 5.001-.742 27.506 14.806s-3.031 3.03-15.473 9.486c-1.1.571.515 2.47.788 3.774z" fill="#2f2e41"/><path d="M476.81 213.185c-1.97.182-3.97.273-5.97.273-1.94 0-3.865-.076-5.79-.258.122 1.197.227 2.425.334 3.698 1.803.151 3.637.227 5.456.227a62.045 62.045 0 006.304-.303 68.558 68.558 0 008.061-1.243 12.506 12.506 0 01.486-3.682l.015-.213a62.996 62.996 0 01-8.895 1.5zm57.268-85.047a66.972 66.972 0 10-115.733 63.618 66.288 66.288 0 001.864 2.243c.06.06.09.106.136.152a63.82 63.82 0 004.986 5.137c.424.394.863.788 1.303 1.167.046.03.076.076.121.106.91.818 1.85 1.591 2.819 2.334.136.106.258.197.378.303l.774.591c1.545 1.167 3.152 2.243 4.789 3.288.03 0 .045.016.075.03.47.289.955.577 1.425.85q.728.431 1.5.863c.379.212.773.425 1.152.622l.56.288a68.721 68.721 0 003.986 1.894c.273.121.576.242.849.363l.06.03c.637.258 1.273.516 1.925.759a62.702 62.702 0 006.516 2.09c.379.107.743.198 1.122.274a65.38 65.38 0 0010.699 1.758c1.803.151 3.637.227 5.456.227a62.045 62.045 0 006.303-.303 68.558 68.558 0 008.062-1.243c2.001-.44 3.987-.97 5.941-1.576.015 0 .015-.015.03-.015 1.41-.44 2.789-.94 4.153-1.47a67.38 67.38 0 004.152-1.819c.03-.015.076-.03.106-.045 0-.015.03-.015.046-.03.606-.288 1.197-.591 1.803-.894.091-.046.182-.091.288-.152.455-.227.909-.47 1.364-.712.03-.015.045-.03.075-.046a70.307 70.307 0 003.547-2.106c.318-.197.636-.394.955-.622.47-.287.924-.606 1.363-.924.592-.41 1.182-.833 1.759-1.273a4.68 4.68 0 00.545-.409 57.746 57.746 0 004.076-3.364 66.914 66.914 0 0018.67-71.984zm-19.806 68.074a64.792 64.792 0 01-5.152 4.364c-.394.303-.804.606-1.212.88-.395.302-.789.59-1.198.863a25.59 25.59 0 01-1.06.712c-.031.03-.076.046-.107.076-.258.182-.53.349-.788.515-.803.5-1.637 1-2.455 1.47-.197.106-.379.228-.576.334-.106.06-.212.12-.333.181-.455.258-.91.485-1.364.728-.06.045-.136.06-.197.106a.112.112 0 00-.06.03c-.319.167-.637.319-.955.47-.273.137-.53.273-.804.394a67.268 67.268 0 01-3.38 1.5c-1.196.485-2.408.925-3.636 1.334-.303.106-.622.227-.94.318-1.44.455-2.879.864-4.35 1.197a62.996 62.996 0 01-8.894 1.5c-1.97.183-3.971.274-5.971.274-1.94 0-3.865-.076-5.79-.258a62.373 62.373 0 01-10.168-1.788l-.38-.091a58.11 58.11 0 01-8.016-2.728c-.136-.06-.288-.106-.409-.167-.152-.06-.288-.106-.41-.167-.15-.06-.287-.12-.423-.181a67.796 67.796 0 01-3.35-1.607l-.515-.273a45.88 45.88 0 01-2.91-1.636 18.143 18.143 0 01-1.015-.606c-.379-.228-.758-.47-1.122-.713l-.272-.181c-.849-.576-1.712-1.152-2.53-1.773-.576-.425-1.137-.834-1.698-1.273-.364-.273-.727-.561-1.076-.864-.227-.167-.454-.364-.682-.561-.303-.258-.606-.515-.909-.788-.47-.379-.91-.803-1.334-1.197a60.23 60.23 0 01-4.834-5.001c-.515-.576-1-1.152-1.47-1.758a3.647 3.647 0 01-.303-.379 63.298 63.298 0 1193.048 6.744z" fill="#3f3d56"/><path fill="#a0616a" d="M163.436 496.698l12.26-.001 5.832-47.288-18.094.001.002 47.288z"/><path d="M160.309 492.695h24.145a15.387 15.387 0 0115.387 15.385v.5l-39.531.002z" fill="#2f2e41"/><path fill="#a0616a" d="M209.436 496.698l12.26-.001 5.832-47.288-18.094.001.002 47.288z"/><path d="M206.309 492.695h24.145a15.387 15.387 0 0115.387 15.385v.5l-39.531.002z" fill="#2f2e41"/><path d="M126.237 309.84a10.056 10.056 0 00-1.884-15.304l8.518-34.705-17.492 6.233-5.407 32.001a10.11 10.11 0 0016.265 11.775zM256.378 306.84a10.056 10.056 0 011.883-15.304l-8.518-34.705 17.492 6.233 5.407 32.001a10.11 10.11 0 01-16.264 11.775z" fill="#9e616a"/><path fill="#2f2e41" d="M142.367 285.513l16.993 199.065 24.864-2.267 9.951-153.85 8.858 60.918 1.774 96.766 22.5-1.5 12.494-104.1-3.065-100.817-85.417-8.65-8.952 14.435z"/><circle cx="189.112" cy="78.582" r="25.786" fill="#a0616a"/><path d="M180.947 57.954s12.033 3.223 18.265 4.512 5.586-2.363 5.586-2.363 8.166 1.074 7.736.215 3.438-5.372-1.074-10.53-3.223-9.025-3.223-9.025h-3.868l-1.075-1.504h-6.016s-6.652-5.833-18.471-4.114-25.795 6.263-27.084 13.354c-.175.962-.405 2.03-.673 3.16-3.231 13.643 3.635 26.408 10.757 38.486 1.75 2.968 10.217 9.44 10 5s-7.621-14.414-2.464-15.058 13.967-13.753 11.604-22.133z" fill="#2f2e41"/><path d="M162.28 113.176h45.411l32.11 169.575s-27.994 2.394-43.994 8.394-42.598-13.706-42.598-13.706z" fill="#3f87cd"/><path d="M167.949 132.326v-19.15l-5.142-.03-37.567 23.884 8.152 130.863s9.648 43.658 24.281 43.205 25.918-156.09 10.276-178.772z" fill="#2f2e41"/><path d="M137.307 140.645l-12.067-3.615s-8.933 2.615-8.933 11.615-7.697 136.868-7.697 136.868l24.451 2.161 5.246-65.029zM204.307 125.645l-2.405-12.469 6.905-1.03 25 10s22.5 164.5 12.5 169.5-16.752 1.125-16.752 1.125-32.891-121.326-27.07-137.726z" fill="#2f2e41"/><path d="M216.307 124.645l4.267-1.857s12.523-6.206 19.628 6.326 32.105 152.531 32.105 152.531l-20.57 3.868-15.379-50.384z" fill="#2f2e41"/><path d="M382 509.145H1a1 1 0 110-2h381a1 1 0 010 2z" fill="#cacaca"/></svg>